# xmcd
#
# Track frame offsets:
#       150
#       13120
#       28585
#       46655
#       61595
#       78595
#       93892
#       107400
#       115687
#       125685
#       138817
#       150262
#       162437
#
# Disc length: 2476 seconds
#
# Revision: 0
# Processed by: cddbd v1.4PL0 Copyright (c) Steve Scherf et al.
# Submitted via: WhereIsIt 3.22
#
DISCID=8e09aa0d
DTITLE=Plava trava zaborava
DYEAR=1900
DGENRE=
TTITLE0=Take me back to Tulsa
TTITLE1=Jambalaya
TTITLE2=Garden Party
TTITLE3=(Lost Her Love) On Our Last Date
TTITLE4=Lucille
TTITLE5=Ooh Las Vegas
TTITLE6=Duelling Banjos
TTITLE7=Foggy Mountain Breakdown
TTITLE8=Will The Circle Be Unbroken
TTITLE9=Detroit City
TTITLE10=Oh Suzannah
TTITLE11=Diggy Liggy Lo
TTITLE12=Orange Blossom Special
EXTD=
EXTT0=
EXTT1=
EXTT2=
EXTT3=
EXTT4=
EXTT5=
EXTT6=
EXTT7=
EXTT8=
EXTT9=
EXTT10=
EXTT11=
EXTT12=
PLAYORDER=
